<svg width="32" height="32" viewBox="0 0 32 32" fill="none" xmlns="http://www.w3.org/2000/svg">
<g clip-path="url(#clip0_328_20936)">
<path d="M7.33333 15.9999C7.33333 15.2635 7.93029 14.6666 8.66667 14.6666H19.3333C20.0697 14.6666 20.6667 15.2635 20.6667 15.9999C20.6667 16.7363 20.0697 17.3333 19.3333 17.3333H8.66667C7.93029 17.3333 7.33333 16.7363 7.33333 15.9999Z" fill="#F56630"/>
<path d="M8.66667 21.3333C7.93029 21.3333 7.33333 21.9302 7.33333 22.6666C7.33333 23.403 7.93029 23.9999 8.66667 23.9999H19.3333C20.0697 23.9999 20.6667 23.403 20.6667 22.6666C20.6667 21.9302 20.0697 21.3333 19.3333 21.3333H8.66667Z" fill="#F56630"/>
<path fill-rule="evenodd" clip-rule="evenodd" d="M7.33333 1.33325C4.38782 1.33325 2 3.72107 2 6.66658V25.3333C2 28.2788 4.38781 30.6666 7.33333 30.6666H20.6667C23.6122 30.6666 26 28.2788 26 25.3333V12.1148C26 10.8671 25.5626 9.65895 24.7638 8.70047L20.2237 3.25227C19.2104 2.03631 17.7093 1.33325 16.1265 1.33325H7.33333ZM4.66667 6.66658C4.66667 5.19383 5.86057 3.99992 7.33333 3.99992H15.3333V7.99992C15.3333 10.9454 17.7211 13.3333 20.6667 13.3333H23.3333V25.3333C23.3333 26.806 22.1394 27.9999 20.6667 27.9999H7.33333C5.86057 27.9999 4.66667 26.806 4.66667 25.3333V6.66658ZM22.9058 10.6666C22.8478 10.5769 22.7842 10.4904 22.7153 10.4076L18.1751 4.95943C18.1196 4.8928 18.0611 4.82925 18 4.76891V7.99992C18 9.47268 19.1939 10.6666 20.6667 10.6666H22.9058Z" fill="#F56630"/>
</g>
<defs>
<clipPath id="clip0_328_20936">
<rect width="32" height="32" fill="white"/>
</clipPath>
</defs>
</svg>
