<svg width="285" height="19" viewBox="0 0 285 19" fill="none" xmlns="http://www.w3.org/2000/svg">
<path d="M9.63636 3.36364V15H8.27273L1.93182 5.86364H1.81818V15H0.409091V3.36364H1.77273L8.13636 12.5227H8.25V3.36364H9.63636ZM15.9332 15.1818C15.0923 15.1818 14.367 14.9962 13.7571 14.625C13.151 14.25 12.6832 13.7273 12.3537 13.0568C12.0279 12.3826 11.8651 11.5985 11.8651 10.7045C11.8651 9.81061 12.0279 9.02273 12.3537 8.34091C12.6832 7.6553 13.1416 7.12121 13.7287 6.73864C14.3196 6.35227 15.009 6.15909 15.7969 6.15909C16.2514 6.15909 16.7003 6.23485 17.1435 6.38636C17.5866 6.53788 17.9901 6.78409 18.3537 7.125C18.7173 7.46212 19.0071 7.90909 19.223 8.46591C19.4389 9.02273 19.5469 9.70833 19.5469 10.5227V11.0909H12.8196V9.93182H18.1832C18.1832 9.43939 18.0848 9 17.8878 8.61364C17.6946 8.22727 17.4181 7.92235 17.0582 7.69886C16.7022 7.47538 16.2817 7.36364 15.7969 7.36364C15.2628 7.36364 14.8007 7.49621 14.4105 7.76136C14.0241 8.02273 13.7268 8.36364 13.5185 8.78409C13.3101 9.20455 13.206 9.6553 13.206 10.1364V10.9091C13.206 11.5682 13.3196 12.1269 13.5469 12.5852C13.7779 13.0398 14.098 13.3864 14.5071 13.625C14.9162 13.8598 15.3916 13.9773 15.9332 13.9773C16.2855 13.9773 16.6037 13.928 16.8878 13.8295C17.1757 13.7273 17.4238 13.5758 17.6321 13.375C17.8404 13.1705 18.0014 12.9167 18.1151 12.6136L19.4105 12.9773C19.2741 13.4167 19.045 13.803 18.723 14.1364C18.401 14.4659 18.0033 14.7235 17.5298 14.9091C17.0563 15.0909 16.5241 15.1818 15.9332 15.1818ZM23.5639 15L20.9048 6.27273H22.3139L24.2003 12.9545H24.2912L26.1548 6.27273H27.5866L29.4276 12.9318H29.5185L31.4048 6.27273H32.8139L30.1548 15H28.8366L26.9276 8.29545H26.7912L24.8821 15H23.5639ZM41.6548 15.2045C41.1018 15.2045 40.5999 15.1004 40.1491 14.892C39.6984 14.6799 39.3404 14.375 39.0753 13.9773C38.8101 13.5758 38.6776 13.0909 38.6776 12.5227C38.6776 12.0227 38.776 11.6174 38.973 11.3068C39.17 10.9924 39.4332 10.7462 39.7628 10.5682C40.0923 10.3902 40.456 10.2576 40.8537 10.1705C41.2552 10.0795 41.6586 10.0076 42.0639 9.95455C42.5942 9.88636 43.0241 9.83523 43.3537 9.80114C43.687 9.76326 43.9295 9.70076 44.081 9.61364C44.2363 9.52652 44.3139 9.375 44.3139 9.15909V9.11364C44.3139 8.55303 44.1605 8.11742 43.8537 7.80682C43.5507 7.49621 43.0904 7.34091 42.473 7.34091C41.8329 7.34091 41.331 7.48106 40.9673 7.76136C40.6037 8.04167 40.348 8.34091 40.2003 8.65909L38.9276 8.20455C39.1548 7.67424 39.4579 7.26136 39.8366 6.96591C40.2192 6.66667 40.6359 6.45833 41.0866 6.34091C41.5412 6.2197 41.9882 6.15909 42.4276 6.15909C42.7079 6.15909 43.0298 6.19318 43.3935 6.26136C43.7609 6.32576 44.1151 6.46023 44.456 6.66477C44.8007 6.86932 45.0866 7.17803 45.3139 7.59091C45.5412 8.00379 45.6548 8.55682 45.6548 9.25V15H44.3139V13.8182H44.2457C44.1548 14.0076 44.0033 14.2102 43.7912 14.4261C43.5791 14.642 43.2969 14.8258 42.9446 14.9773C42.5923 15.1288 42.1624 15.2045 41.6548 15.2045ZM41.8594 14C42.3897 14 42.8366 13.8958 43.2003 13.6875C43.5677 13.4792 43.8442 13.2102 44.0298 12.8807C44.2192 12.5511 44.3139 12.2045 44.3139 11.8409V10.6136C44.2571 10.6818 44.1321 10.7443 43.9389 10.8011C43.7495 10.8542 43.5298 10.9015 43.2798 10.9432C43.0336 10.9811 42.7931 11.0152 42.5582 11.0455C42.3272 11.072 42.1397 11.0947 41.9957 11.1136C41.6473 11.1591 41.3215 11.233 41.0185 11.3352C40.7192 11.4337 40.4768 11.5833 40.2912 11.7841C40.1094 11.9811 40.0185 12.25 40.0185 12.5909C40.0185 13.0568 40.1908 13.4091 40.5355 13.6477C40.884 13.8826 41.3253 14 41.8594 14ZM51.8977 6.27273V7.40909H47.375V6.27273H51.8977ZM48.6932 4.18182H50.0341V12.5C50.0341 12.8788 50.089 13.1629 50.1989 13.3523C50.3125 13.5379 50.4564 13.6629 50.6307 13.7273C50.8087 13.7879 50.9962 13.8182 51.1932 13.8182C51.3409 13.8182 51.4621 13.8106 51.5568 13.7955C51.6515 13.7765 51.7273 13.7614 51.7841 13.75L52.0568 14.9545C51.9659 14.9886 51.839 15.0227 51.6761 15.0568C51.5133 15.0947 51.3068 15.1136 51.0568 15.1136C50.678 15.1136 50.3068 15.0322 49.9432 14.8693C49.5833 14.7064 49.2841 14.4583 49.0455 14.125C48.8106 13.7917 48.6932 13.3712 48.6932 12.8636V4.18182ZM57.7102 6.27273V7.40909H53.1875V6.27273H57.7102ZM54.5057 4.18182H55.8466V12.5C55.8466 12.8788 55.9015 13.1629 56.0114 13.3523C56.125 13.5379 56.2689 13.6629 56.4432 13.7273C56.6212 13.7879 56.8087 13.8182 57.0057 13.8182C57.1534 13.8182 57.2746 13.8106 57.3693 13.7955C57.464 13.7765 57.5398 13.7614 57.5966 13.75L57.8693 14.9545C57.7784 14.9886 57.6515 15.0227 57.4886 15.0568C57.3258 15.0947 57.1193 15.1136 56.8693 15.1136C56.4905 15.1136 56.1193 15.0322 55.7557 14.8693C55.3958 14.7064 55.0966 14.4583 54.858 14.125C54.6231 13.7917 54.5057 13.3712 54.5057 12.8636V4.18182ZM63.2926 15.1818C62.4517 15.1818 61.7263 14.9962 61.1165 14.625C60.5104 14.25 60.0426 13.7273 59.7131 13.0568C59.3873 12.3826 59.2244 11.5985 59.2244 10.7045C59.2244 9.81061 59.3873 9.02273 59.7131 8.34091C60.0426 7.6553 60.5009 7.12121 61.0881 6.73864C61.679 6.35227 62.3684 6.15909 63.1562 6.15909C63.6108 6.15909 64.0597 6.23485 64.5028 6.38636C64.946 6.53788 65.3494 6.78409 65.7131 7.125C66.0767 7.46212 66.3665 7.90909 66.5824 8.46591C66.7983 9.02273 66.9062 9.70833 66.9062 10.5227V11.0909H60.179V9.93182H65.5426C65.5426 9.43939 65.4441 9 65.2472 8.61364C65.054 8.22727 64.7775 7.92235 64.4176 7.69886C64.0616 7.47538 63.6411 7.36364 63.1562 7.36364C62.6222 7.36364 62.16 7.49621 61.7699 7.76136C61.3835 8.02273 61.0862 8.36364 60.8778 8.78409C60.6695 9.20455 60.5653 9.6553 60.5653 10.1364V10.9091C60.5653 11.5682 60.679 12.1269 60.9062 12.5852C61.1373 13.0398 61.4574 13.3864 61.8665 13.625C62.2756 13.8598 62.7509 13.9773 63.2926 13.9773C63.6449 13.9773 63.9631 13.928 64.2472 13.8295C64.535 13.7273 64.7831 13.5758 64.9915 13.375C65.1998 13.1705 65.3608 12.9167 65.4744 12.6136L66.7699 12.9773C66.6335 13.4167 66.4044 13.803 66.0824 14.1364C65.7604 14.4659 65.3627 14.7235 64.8892 14.9091C64.4157 15.0909 63.8835 15.1818 63.2926 15.1818ZM70.2869 9.75V15H68.946V6.27273H70.2415V7.63636H70.3551C70.5597 7.19318 70.8703 6.83712 71.2869 6.56818C71.7036 6.29545 72.2415 6.15909 72.9006 6.15909C73.4915 6.15909 74.0085 6.2803 74.4517 6.52273C74.8949 6.76136 75.2396 7.125 75.4858 7.61364C75.732 8.09848 75.8551 8.71212 75.8551 9.45455V15H74.5142V9.54545C74.5142 8.85985 74.3362 8.32576 73.9801 7.94318C73.6241 7.55682 73.1354 7.36364 72.5142 7.36364C72.0862 7.36364 71.7036 7.45644 71.3665 7.64205C71.0331 7.82765 70.7699 8.09848 70.5767 8.45455C70.3835 8.81061 70.2869 9.24242 70.2869 9.75ZM81.6009 15.1818C80.8736 15.1818 80.2315 14.9981 79.6747 14.6307C79.1179 14.2595 78.6823 13.7367 78.3679 13.0625C78.0535 12.3845 77.8963 11.5833 77.8963 10.6591C77.8963 9.74242 78.0535 8.94697 78.3679 8.27273C78.6823 7.59848 79.1198 7.07765 79.6804 6.71023C80.241 6.3428 80.8887 6.15909 81.6236 6.15909C82.1918 6.15909 82.6406 6.25379 82.9702 6.44318C83.3035 6.62879 83.5573 6.84091 83.7315 7.07955C83.9096 7.31439 84.0478 7.50758 84.1463 7.65909H84.2599V3.36364H85.6009V15H84.3054V13.6591H84.1463C84.0478 13.8182 83.9077 14.0189 83.7259 14.2614C83.544 14.5 83.2846 14.714 82.9474 14.9034C82.6103 15.089 82.1615 15.1818 81.6009 15.1818ZM81.7827 13.9773C82.3205 13.9773 82.7751 13.8371 83.1463 13.5568C83.5175 13.2727 83.7997 12.8807 83.9929 12.3807C84.1861 11.8769 84.2827 11.2955 84.2827 10.6364C84.2827 9.98485 84.188 9.41477 83.9986 8.92614C83.8092 8.43371 83.5289 8.05114 83.1577 7.77841C82.7865 7.50189 82.3281 7.36364 81.7827 7.36364C81.2145 7.36364 80.741 7.50947 80.3622 7.80114C79.9872 8.08902 79.705 8.48106 79.5156 8.97727C79.33 9.4697 79.2372 10.0227 79.2372 10.6364C79.2372 11.2576 79.3319 11.822 79.5213 12.3295C79.7145 12.8333 79.9986 13.2348 80.3736 13.5341C80.7524 13.8295 81.2221 13.9773 81.7827 13.9773ZM91.902 15.1818C91.0611 15.1818 90.3357 14.9962 89.7259 14.625C89.1198 14.25 88.652 13.7273 88.3224 13.0568C87.9967 12.3826 87.8338 11.5985 87.8338 10.7045C87.8338 9.81061 87.9967 9.02273 88.3224 8.34091C88.652 7.6553 89.1103 7.12121 89.6974 6.73864C90.2884 6.35227 90.9777 6.15909 91.7656 6.15909C92.2202 6.15909 92.669 6.23485 93.1122 6.38636C93.5554 6.53788 93.9588 6.78409 94.3224 7.125C94.6861 7.46212 94.9759 7.90909 95.1918 8.46591C95.4077 9.02273 95.5156 9.70833 95.5156 10.5227V11.0909H88.7884V9.93182H94.152C94.152 9.43939 94.0535 9 93.8565 8.61364C93.6634 8.22727 93.3868 7.92235 93.027 7.69886C92.6709 7.47538 92.2505 7.36364 91.7656 7.36364C91.2315 7.36364 90.7694 7.49621 90.3793 7.76136C89.9929 8.02273 89.6955 8.36364 89.4872 8.78409C89.2789 9.20455 89.1747 9.6553 89.1747 10.1364V10.9091C89.1747 11.5682 89.2884 12.1269 89.5156 12.5852C89.7467 13.0398 90.0668 13.3864 90.4759 13.625C90.8849 13.8598 91.3603 13.9773 91.902 13.9773C92.2543 13.9773 92.5724 13.928 92.8565 13.8295C93.1444 13.7273 93.3925 13.5758 93.6009 13.375C93.8092 13.1705 93.9702 12.9167 94.0838 12.6136L95.3793 12.9773C95.2429 13.4167 95.0137 13.803 94.6918 14.1364C94.3698 14.4659 93.9721 14.7235 93.4986 14.9091C93.0251 15.0909 92.4929 15.1818 91.902 15.1818ZM101.214 15.1818C100.374 15.1818 99.6482 14.9962 99.0384 14.625C98.4323 14.25 97.9645 13.7273 97.6349 13.0568C97.3092 12.3826 97.1463 11.5985 97.1463 10.7045C97.1463 9.81061 97.3092 9.02273 97.6349 8.34091C97.9645 7.6553 98.4228 7.12121 99.0099 6.73864C99.6009 6.35227 100.29 6.15909 101.078 6.15909C101.533 6.15909 101.982 6.23485 102.425 6.38636C102.868 6.53788 103.271 6.78409 103.635 7.125C103.999 7.46212 104.288 7.90909 104.504 8.46591C104.72 9.02273 104.828 9.70833 104.828 10.5227V11.0909H98.1009V9.93182H103.464C103.464 9.43939 103.366 9 103.169 8.61364C102.976 8.22727 102.699 7.92235 102.339 7.69886C101.983 7.47538 101.563 7.36364 101.078 7.36364C100.544 7.36364 100.082 7.49621 99.6918 7.76136C99.3054 8.02273 99.008 8.36364 98.7997 8.78409C98.5914 9.20455 98.4872 9.6553 98.4872 10.1364V10.9091C98.4872 11.5682 98.6009 12.1269 98.8281 12.5852C99.0592 13.0398 99.3793 13.3864 99.7884 13.625C100.197 13.8598 100.673 13.9773 101.214 13.9773C101.567 13.9773 101.885 13.928 102.169 13.8295C102.457 13.7273 102.705 13.5758 102.913 13.375C103.122 13.1705 103.283 12.9167 103.396 12.6136L104.692 12.9773C104.555 13.4167 104.326 13.803 104.004 14.1364C103.682 14.4659 103.285 14.7235 102.811 14.9091C102.338 15.0909 101.805 15.1818 101.214 15.1818ZM113.05 8.22727L111.845 8.56818C111.769 8.36742 111.658 8.17235 111.51 7.98295C111.366 7.78977 111.169 7.63068 110.919 7.50568C110.669 7.38068 110.349 7.31818 109.959 7.31818C109.425 7.31818 108.98 7.44129 108.624 7.6875C108.271 7.92992 108.095 8.23864 108.095 8.61364C108.095 8.94697 108.216 9.21023 108.459 9.40341C108.701 9.59659 109.08 9.75758 109.595 9.88636L110.891 10.2045C111.671 10.3939 112.252 10.6837 112.635 11.0739C113.018 11.4602 113.209 11.9583 113.209 12.5682C113.209 13.0682 113.065 13.5152 112.777 13.9091C112.493 14.303 112.095 14.6136 111.584 14.8409C111.072 15.0682 110.478 15.1818 109.8 15.1818C108.91 15.1818 108.173 14.9886 107.589 14.6023C107.006 14.2159 106.637 13.6515 106.482 12.9091L107.754 12.5909C107.875 13.0606 108.105 13.4129 108.442 13.6477C108.783 13.8826 109.228 14 109.777 14C110.402 14 110.898 13.8674 111.266 13.6023C111.637 13.3333 111.822 13.0114 111.822 12.6364C111.822 12.3333 111.716 12.0795 111.504 11.875C111.292 11.6667 110.966 11.5114 110.527 11.4091L109.072 11.0682C108.273 10.8788 107.686 10.5852 107.311 10.1875C106.94 9.78598 106.754 9.28409 106.754 8.68182C106.754 8.18939 106.893 7.75379 107.169 7.375C107.449 6.99621 107.83 6.69886 108.311 6.48295C108.796 6.26705 109.345 6.15909 109.959 6.15909C110.822 6.15909 111.5 6.34848 111.993 6.72727C112.489 7.10606 112.841 7.60606 113.05 8.22727ZM121.705 15L119.045 6.27273H120.455L122.341 12.9545H122.432L124.295 6.27273H125.727L127.568 12.9318H127.659L129.545 6.27273H130.955L128.295 15H126.977L125.068 8.29545H124.932L123.023 15H121.705ZM135.976 15.1818C135.188 15.1818 134.497 14.9943 133.902 14.6193C133.311 14.2443 132.849 13.7197 132.516 13.0455C132.186 12.3712 132.021 11.5833 132.021 10.6818C132.021 9.77273 132.186 8.97917 132.516 8.30114C132.849 7.62311 133.311 7.09659 133.902 6.72159C134.497 6.34659 135.188 6.15909 135.976 6.15909C136.764 6.15909 137.453 6.34659 138.044 6.72159C138.639 7.09659 139.101 7.62311 139.43 8.30114C139.764 8.97917 139.93 9.77273 139.93 10.6818C139.93 11.5833 139.764 12.3712 139.43 13.0455C139.101 13.7197 138.639 14.2443 138.044 14.6193C137.453 14.9943 136.764 15.1818 135.976 15.1818ZM135.976 13.9773C136.574 13.9773 137.067 13.8239 137.453 13.517C137.839 13.2102 138.125 12.8068 138.311 12.3068C138.497 11.8068 138.589 11.2652 138.589 10.6818C138.589 10.0985 138.497 9.55492 138.311 9.05114C138.125 8.54735 137.839 8.14015 137.453 7.82955C137.067 7.51894 136.574 7.36364 135.976 7.36364C135.377 7.36364 134.885 7.51894 134.499 7.82955C134.112 8.14015 133.826 8.54735 133.641 9.05114C133.455 9.55492 133.362 10.0985 133.362 10.6818C133.362 11.2652 133.455 11.8068 133.641 12.3068C133.826 12.8068 134.112 13.2102 134.499 13.517C134.885 13.8239 135.377 13.9773 135.976 13.9773ZM147.477 11.4318V6.27273H148.818V15H147.477V13.5227H147.386C147.182 13.9659 146.864 14.3428 146.432 14.6534C146 14.9602 145.455 15.1136 144.795 15.1136C144.25 15.1136 143.765 14.9943 143.341 14.7557C142.917 14.5133 142.583 14.1496 142.341 13.6648C142.098 13.1761 141.977 12.5606 141.977 11.8182V6.27273H143.318V11.7273C143.318 12.3636 143.496 12.8712 143.852 13.25C144.212 13.6288 144.67 13.8182 145.227 13.8182C145.561 13.8182 145.9 13.733 146.244 13.5625C146.593 13.392 146.884 13.1307 147.119 12.7784C147.358 12.4261 147.477 11.9773 147.477 11.4318ZM152.615 3.36364V15H151.274V3.36364H152.615ZM158.366 15.1818C157.639 15.1818 156.997 14.9981 156.44 14.6307C155.884 14.2595 155.448 13.7367 155.134 13.0625C154.819 12.3845 154.662 11.5833 154.662 10.6591C154.662 9.74242 154.819 8.94697 155.134 8.27273C155.448 7.59848 155.885 7.07765 156.446 6.71023C157.007 6.3428 157.654 6.15909 158.389 6.15909C158.957 6.15909 159.406 6.25379 159.736 6.44318C160.069 6.62879 160.323 6.84091 160.497 7.07955C160.675 7.31439 160.813 7.50758 160.912 7.65909H161.026V3.36364H162.366V15H161.071V13.6591H160.912C160.813 13.8182 160.673 14.0189 160.491 14.2614C160.31 14.5 160.05 14.714 159.713 14.9034C159.376 15.089 158.927 15.1818 158.366 15.1818ZM158.548 13.9773C159.086 13.9773 159.541 13.8371 159.912 13.5568C160.283 13.2727 160.565 12.8807 160.759 12.3807C160.952 11.8769 161.048 11.2955 161.048 10.6364C161.048 9.98485 160.954 9.41477 160.764 8.92614C160.575 8.43371 160.295 8.05114 159.923 7.77841C159.552 7.50189 159.094 7.36364 158.548 7.36364C157.98 7.36364 157.507 7.50947 157.128 7.80114C156.753 8.08902 156.471 8.48106 156.281 8.97727C156.096 9.4697 156.003 10.0227 156.003 10.6364C156.003 11.2576 156.098 11.822 156.287 12.3295C156.48 12.8333 156.764 13.2348 157.139 13.5341C157.518 13.8295 157.988 13.9773 158.548 13.9773ZM172.077 15.2045C171.524 15.2045 171.022 15.1004 170.571 14.892C170.12 14.6799 169.762 14.375 169.497 13.9773C169.232 13.5758 169.099 13.0909 169.099 12.5227C169.099 12.0227 169.198 11.6174 169.395 11.3068C169.592 10.9924 169.855 10.7462 170.185 10.5682C170.514 10.3902 170.878 10.2576 171.276 10.1705C171.677 10.0795 172.08 10.0076 172.486 9.95455C173.016 9.88636 173.446 9.83523 173.776 9.80114C174.109 9.76326 174.351 9.70076 174.503 9.61364C174.658 9.52652 174.736 9.375 174.736 9.15909V9.11364C174.736 8.55303 174.582 8.11742 174.276 7.80682C173.973 7.49621 173.512 7.34091 172.895 7.34091C172.255 7.34091 171.753 7.48106 171.389 7.76136C171.026 8.04167 170.77 8.34091 170.622 8.65909L169.349 8.20455C169.577 7.67424 169.88 7.26136 170.259 6.96591C170.641 6.66667 171.058 6.45833 171.509 6.34091C171.963 6.2197 172.41 6.15909 172.849 6.15909C173.13 6.15909 173.452 6.19318 173.815 6.26136C174.183 6.32576 174.537 6.46023 174.878 6.66477C175.223 6.86932 175.509 7.17803 175.736 7.59091C175.963 8.00379 176.077 8.55682 176.077 9.25V15H174.736V13.8182H174.668C174.577 14.0076 174.425 14.2102 174.213 14.4261C174.001 14.642 173.719 14.8258 173.366 14.9773C173.014 15.1288 172.584 15.2045 172.077 15.2045ZM172.281 14C172.812 14 173.259 13.8958 173.622 13.6875C173.99 13.4792 174.266 13.2102 174.452 12.8807C174.641 12.5511 174.736 12.2045 174.736 11.8409V10.6136C174.679 10.6818 174.554 10.7443 174.361 10.8011C174.171 10.8542 173.952 10.9015 173.702 10.9432C173.455 10.9811 173.215 11.0152 172.98 11.0455C172.749 11.072 172.562 11.0947 172.418 11.1136C172.069 11.1591 171.743 11.233 171.44 11.3352C171.141 11.4337 170.899 11.5833 170.713 11.7841C170.531 11.9811 170.44 12.25 170.44 12.5909C170.44 13.0568 170.613 13.4091 170.957 13.6477C171.306 13.8826 171.747 14 172.281 14ZM178.524 18.2727V6.27273H179.82V7.65909H179.979C180.077 7.50758 180.214 7.31439 180.388 7.07955C180.566 6.84091 180.82 6.62879 181.149 6.44318C181.482 6.25379 181.933 6.15909 182.501 6.15909C183.236 6.15909 183.884 6.3428 184.445 6.71023C185.005 7.07765 185.443 7.59848 185.757 8.27273C186.071 8.94697 186.229 9.74242 186.229 10.6591C186.229 11.5833 186.071 12.3845 185.757 13.0625C185.443 13.7367 185.007 14.2595 184.45 14.6307C183.893 14.9981 183.251 15.1818 182.524 15.1818C181.964 15.1818 181.515 15.089 181.178 14.9034C180.84 14.714 180.581 14.5 180.399 14.2614C180.217 14.0189 180.077 13.8182 179.979 13.6591H179.865V18.2727H178.524ZM179.842 10.6364C179.842 11.2955 179.939 11.8769 180.132 12.3807C180.325 12.8807 180.607 13.2727 180.979 13.5568C181.35 13.8371 181.804 13.9773 182.342 13.9773C182.903 13.9773 183.371 13.8295 183.746 13.5341C184.125 13.2348 184.409 12.8333 184.598 12.3295C184.791 11.822 184.888 11.2576 184.888 10.6364C184.888 10.0227 184.793 9.4697 184.604 8.97727C184.418 8.48106 184.136 8.08902 183.757 7.80114C183.382 7.50947 182.911 7.36364 182.342 7.36364C181.797 7.36364 181.339 7.50189 180.967 7.77841C180.596 8.05114 180.316 8.43371 180.126 8.92614C179.937 9.41477 179.842 9.98485 179.842 10.6364ZM188.274 18.2727V6.27273H189.57V7.65909H189.729C189.827 7.50758 189.964 7.31439 190.138 7.07955C190.316 6.84091 190.57 6.62879 190.899 6.44318C191.232 6.25379 191.683 6.15909 192.251 6.15909C192.986 6.15909 193.634 6.3428 194.195 6.71023C194.755 7.07765 195.193 7.59848 195.507 8.27273C195.821 8.94697 195.979 9.74242 195.979 10.6591C195.979 11.5833 195.821 12.3845 195.507 13.0625C195.193 13.7367 194.757 14.2595 194.2 14.6307C193.643 14.9981 193.001 15.1818 192.274 15.1818C191.714 15.1818 191.265 15.089 190.928 14.9034C190.59 14.714 190.331 14.5 190.149 14.2614C189.967 14.0189 189.827 13.8182 189.729 13.6591H189.615V18.2727H188.274ZM189.592 10.6364C189.592 11.2955 189.689 11.8769 189.882 12.3807C190.075 12.8807 190.357 13.2727 190.729 13.5568C191.1 13.8371 191.554 13.9773 192.092 13.9773C192.653 13.9773 193.121 13.8295 193.496 13.5341C193.875 13.2348 194.159 12.8333 194.348 12.3295C194.541 11.822 194.638 11.2576 194.638 10.6364C194.638 10.0227 194.543 9.4697 194.354 8.97727C194.168 8.48106 193.886 8.08902 193.507 7.80114C193.132 7.50947 192.661 7.36364 192.092 7.36364C191.547 7.36364 191.089 7.50189 190.717 7.77841C190.346 8.05114 190.066 8.43371 189.876 8.92614C189.687 9.41477 189.592 9.98485 189.592 10.6364ZM201.683 15.1818C200.842 15.1818 200.117 14.9962 199.507 14.625C198.901 14.25 198.433 13.7273 198.104 13.0568C197.778 12.3826 197.615 11.5985 197.615 10.7045C197.615 9.81061 197.778 9.02273 198.104 8.34091C198.433 7.6553 198.892 7.12121 199.479 6.73864C200.07 6.35227 200.759 6.15909 201.547 6.15909C202.001 6.15909 202.45 6.23485 202.893 6.38636C203.337 6.53788 203.74 6.78409 204.104 7.125C204.467 7.46212 204.757 7.90909 204.973 8.46591C205.189 9.02273 205.297 9.70833 205.297 10.5227V11.0909H198.57V9.93182H203.933C203.933 9.43939 203.835 9 203.638 8.61364C203.445 8.22727 203.168 7.92235 202.808 7.69886C202.452 7.47538 202.032 7.36364 201.547 7.36364C201.013 7.36364 200.551 7.49621 200.161 7.76136C199.774 8.02273 199.477 8.36364 199.268 8.78409C199.06 9.20455 198.956 9.6553 198.956 10.1364V10.9091C198.956 11.5682 199.07 12.1269 199.297 12.5852C199.528 13.0398 199.848 13.3864 200.257 13.625C200.666 13.8598 201.142 13.9773 201.683 13.9773C202.036 13.9773 202.354 13.928 202.638 13.8295C202.926 13.7273 203.174 13.5758 203.382 13.375C203.59 13.1705 203.751 12.9167 203.865 12.6136L205.161 12.9773C205.024 13.4167 204.795 13.803 204.473 14.1364C204.151 14.4659 203.753 14.7235 203.28 14.9091C202.806 15.0909 202.274 15.1818 201.683 15.1818ZM209.905 15.2045C209.352 15.2045 208.85 15.1004 208.399 14.892C207.948 14.6799 207.59 14.375 207.325 13.9773C207.06 13.5758 206.928 13.0909 206.928 12.5227C206.928 12.0227 207.026 11.6174 207.223 11.3068C207.42 10.9924 207.683 10.7462 208.013 10.5682C208.342 10.3902 208.706 10.2576 209.104 10.1705C209.505 10.0795 209.909 10.0076 210.314 9.95455C210.844 9.88636 211.274 9.83523 211.604 9.80114C211.937 9.76326 212.179 9.70076 212.331 9.61364C212.486 9.52652 212.564 9.375 212.564 9.15909V9.11364C212.564 8.55303 212.411 8.11742 212.104 7.80682C211.801 7.49621 211.34 7.34091 210.723 7.34091C210.083 7.34091 209.581 7.48106 209.217 7.76136C208.854 8.04167 208.598 8.34091 208.45 8.65909L207.178 8.20455C207.405 7.67424 207.708 7.26136 208.087 6.96591C208.469 6.66667 208.886 6.45833 209.337 6.34091C209.791 6.2197 210.238 6.15909 210.678 6.15909C210.958 6.15909 211.28 6.19318 211.643 6.26136C212.011 6.32576 212.365 6.46023 212.706 6.66477C213.051 6.86932 213.337 7.17803 213.564 7.59091C213.791 8.00379 213.905 8.55682 213.905 9.25V15H212.564V13.8182H212.496C212.405 14.0076 212.253 14.2102 212.041 14.4261C211.829 14.642 211.547 14.8258 211.195 14.9773C210.842 15.1288 210.412 15.2045 209.905 15.2045ZM210.109 14C210.64 14 211.087 13.8958 211.45 13.6875C211.818 13.4792 212.094 13.2102 212.28 12.8807C212.469 12.5511 212.564 12.2045 212.564 11.8409V10.6136C212.507 10.6818 212.382 10.7443 212.189 10.8011C212 10.8542 211.78 10.9015 211.53 10.9432C211.284 10.9811 211.043 11.0152 210.808 11.0455C210.577 11.072 210.39 11.0947 210.246 11.1136C209.897 11.1591 209.571 11.233 209.268 11.3352C208.969 11.4337 208.727 11.5833 208.541 11.7841C208.359 11.9811 208.268 12.25 208.268 12.5909C208.268 13.0568 208.441 13.4091 208.786 13.6477C209.134 13.8826 209.575 14 210.109 14ZM216.352 15V6.27273H217.648V7.59091H217.739C217.898 7.15909 218.186 6.80871 218.602 6.53977C219.019 6.27083 219.489 6.13636 220.011 6.13636C220.11 6.13636 220.233 6.13826 220.381 6.14205C220.528 6.14583 220.64 6.15152 220.716 6.15909V7.52273C220.67 7.51136 220.566 7.49432 220.403 7.47159C220.244 7.44508 220.076 7.43182 219.898 7.43182C219.473 7.43182 219.095 7.52083 218.761 7.69886C218.432 7.87311 218.17 8.11553 217.977 8.42614C217.788 8.73295 217.693 9.08333 217.693 9.47727V15H216.352ZM228.146 9.75V15H226.805V3.36364H228.146V7.63636H228.26C228.464 7.18561 228.771 6.82765 229.18 6.5625C229.593 6.29356 230.143 6.15909 230.828 6.15909C231.423 6.15909 231.944 6.27841 232.391 6.51705C232.838 6.75189 233.184 7.11364 233.43 7.60227C233.68 8.08712 233.805 8.70455 233.805 9.45455V15H232.464V9.54545C232.464 8.85227 232.285 8.31629 231.925 7.9375C231.569 7.55492 231.074 7.36364 230.442 7.36364C230.002 7.36364 229.608 7.45644 229.26 7.64205C228.915 7.82765 228.643 8.09848 228.442 8.45455C228.245 8.81061 228.146 9.24242 228.146 9.75ZM239.918 15.1818C239.077 15.1818 238.351 14.9962 237.741 14.625C237.135 14.25 236.668 13.7273 236.338 13.0568C236.012 12.3826 235.849 11.5985 235.849 10.7045C235.849 9.81061 236.012 9.02273 236.338 8.34091C236.668 7.6553 237.126 7.12121 237.713 6.73864C238.304 6.35227 238.993 6.15909 239.781 6.15909C240.236 6.15909 240.685 6.23485 241.128 6.38636C241.571 6.53788 241.974 6.78409 242.338 7.125C242.702 7.46212 242.991 7.90909 243.207 8.46591C243.423 9.02273 243.531 9.70833 243.531 10.5227V11.0909H236.804V9.93182H242.168C242.168 9.43939 242.069 9 241.872 8.61364C241.679 8.22727 241.402 7.92235 241.043 7.69886C240.687 7.47538 240.266 7.36364 239.781 7.36364C239.247 7.36364 238.785 7.49621 238.395 7.76136C238.009 8.02273 237.711 8.36364 237.503 8.78409C237.295 9.20455 237.19 9.6553 237.19 10.1364V10.9091C237.19 11.5682 237.304 12.1269 237.531 12.5852C237.762 13.0398 238.082 13.3864 238.491 13.625C238.901 13.8598 239.376 13.9773 239.918 13.9773C240.27 13.9773 240.588 13.928 240.872 13.8295C241.16 13.7273 241.408 13.5758 241.616 13.375C241.825 13.1705 241.986 12.9167 242.099 12.6136L243.395 12.9773C243.259 13.4167 243.029 13.803 242.707 14.1364C242.385 14.4659 241.988 14.7235 241.514 14.9091C241.041 15.0909 240.509 15.1818 239.918 15.1818ZM245.571 15V6.27273H246.866V7.59091H246.957C247.116 7.15909 247.404 6.80871 247.821 6.53977C248.238 6.27083 248.707 6.13636 249.23 6.13636C249.329 6.13636 249.452 6.13826 249.599 6.14205C249.747 6.14583 249.859 6.15152 249.935 6.15909V7.52273C249.889 7.51136 249.785 7.49432 249.622 7.47159C249.463 7.44508 249.295 7.43182 249.116 7.43182C248.692 7.43182 248.313 7.52083 247.98 7.69886C247.651 7.87311 247.389 8.11553 247.196 8.42614C247.007 8.73295 246.912 9.08333 246.912 9.47727V15H245.571ZM254.918 15.1818C254.077 15.1818 253.351 14.9962 252.741 14.625C252.135 14.25 251.668 13.7273 251.338 13.0568C251.012 12.3826 250.849 11.5985 250.849 10.7045C250.849 9.81061 251.012 9.02273 251.338 8.34091C251.668 7.6553 252.126 7.12121 252.713 6.73864C253.304 6.35227 253.993 6.15909 254.781 6.15909C255.236 6.15909 255.685 6.23485 256.128 6.38636C256.571 6.53788 256.974 6.78409 257.338 7.125C257.702 7.46212 257.991 7.90909 258.207 8.46591C258.423 9.02273 258.531 9.70833 258.531 10.5227V11.0909H251.804V9.93182H257.168C257.168 9.43939 257.069 9 256.872 8.61364C256.679 8.22727 256.402 7.92235 256.043 7.69886C255.687 7.47538 255.266 7.36364 254.781 7.36364C254.247 7.36364 253.785 7.49621 253.395 7.76136C253.009 8.02273 252.711 8.36364 252.503 8.78409C252.295 9.20455 252.19 9.6553 252.19 10.1364V10.9091C252.19 11.5682 252.304 12.1269 252.531 12.5852C252.762 13.0398 253.082 13.3864 253.491 13.625C253.901 13.8598 254.376 13.9773 254.918 13.9773C255.27 13.9773 255.588 13.928 255.872 13.8295C256.16 13.7273 256.408 13.5758 256.616 13.375C256.825 13.1705 256.986 12.9167 257.099 12.6136L258.395 12.9773C258.259 13.4167 258.029 13.803 257.707 14.1364C257.385 14.4659 256.988 14.7235 256.514 14.9091C256.041 15.0909 255.509 15.1818 254.918 15.1818ZM262.344 3.36364L262.23 11.7273H260.912L260.798 3.36364H262.344ZM261.571 15.0909C261.291 15.0909 261.05 14.9905 260.849 14.7898C260.649 14.589 260.548 14.3485 260.548 14.0682C260.548 13.7879 260.649 13.5473 260.849 13.3466C261.05 13.1458 261.291 13.0455 261.571 13.0455C261.851 13.0455 262.092 13.1458 262.293 13.3466C262.493 13.5473 262.594 13.7879 262.594 14.0682C262.594 14.2538 262.546 14.4242 262.452 14.5795C262.361 14.7348 262.238 14.8598 262.082 14.9545C261.931 15.0455 261.76 15.0909 261.571 15.0909ZM268.297 16.12H284.297V0.12H268.297V16.12Z" fill="#475367"/>
</svg>
