<svg width="32" height="32" viewBox="0 0 32 32" fill="none" xmlns="http://www.w3.org/2000/svg">
<path d="M7.99996 20.0001C7.26358 20.0001 6.66663 19.4031 6.66663 18.6667C6.66663 17.9304 7.26358 17.3334 7.99996 17.3334C8.73634 17.3334 9.33329 17.9304 9.33329 18.6667C9.33329 19.4031 8.73634 20.0001 7.99996 20.0001Z" fill="#F56630"/>
<path d="M12 18.6667C12 19.4031 12.5969 20.0001 13.3333 20.0001C14.0697 20.0001 14.6666 19.4031 14.6666 18.6667C14.6666 17.9304 14.0697 17.3334 13.3333 17.3334C12.5969 17.3334 12 17.9304 12 18.6667Z" fill="#F56630"/>
<path d="M18.6666 20.0001C17.9302 20.0001 17.3333 19.4031 17.3333 18.6667C17.3333 17.9304 17.9302 17.3334 18.6666 17.3334C19.403 17.3334 20 17.9304 20 18.6667C20 19.4031 19.403 20.0001 18.6666 20.0001Z" fill="#F56630"/>
<path fill-rule="evenodd" clip-rule="evenodd" d="M27.304 17.9308L23.9952 18.3444C23.9984 18.4515 24 18.5589 24 18.6667C24 24.5578 19.2243 29.3334 13.3333 29.3334C12.4521 29.3334 11.594 29.2263 10.7723 29.0237L5.04045 28.3072C3.63071 28.131 2.65099 26.8169 2.88455 25.4155L3.23615 23.3059L2.97637 21.2277C2.77378 20.406 2.66663 19.548 2.66663 18.6667C2.66663 12.7757 7.44226 8.00008 13.3333 8.00008C13.4848 8.00008 13.6356 8.00324 13.7856 8.0095C14.8812 4.898 17.8452 2.66675 21.3333 2.66675C25.7516 2.66675 29.3333 6.24847 29.3333 10.6667C29.3333 11.3193 29.2549 11.9554 29.1064 12.5652L28.9304 13.9726L29.1724 15.4247C29.3749 16.6392 28.5258 17.7781 27.304 17.9308ZM21.3333 5.33341C24.2788 5.33341 26.6666 7.72123 26.6666 10.6667C26.6666 11.1255 26.609 11.5688 26.5013 11.9908L26.4806 12.072L26.2753 13.7142C26.2493 13.922 26.2536 14.1325 26.2881 14.3391L26.4564 15.3493L23.5844 15.7083C22.5898 12.2561 19.8987 9.52275 16.4718 8.4693C17.3093 6.61951 19.1724 5.33341 21.3333 5.33341ZM13.3333 10.6667C8.91502 10.6667 5.33329 14.2485 5.33329 18.6667C5.33329 19.3538 5.4196 20.0188 5.58128 20.6523L5.60201 20.7335L5.88524 22.9993C5.91521 23.2391 5.91026 23.482 5.87053 23.7204L5.54348 25.6826L11.2666 26.398L11.3478 26.4188C11.9813 26.5804 12.6462 26.6667 13.3333 26.6667C17.7516 26.6667 21.3333 23.085 21.3333 18.6667C21.3333 14.2485 17.7516 10.6667 13.3333 10.6667Z" fill="#F56630"/>
</svg>
