<svg width="31" height="32" viewBox="0 0 31 32" fill="none" xmlns="http://www.w3.org/2000/svg">
<path d="M19.9006 14.3167C20.4436 13.8193 20.4806 12.9759 19.9833 12.4329C19.4859 11.8898 18.6425 11.8528 18.0995 12.3501L13.1767 16.8587L11.9006 15.6899C11.3575 15.1926 10.5141 15.2296 10.0168 15.7727C9.5194 16.3157 9.55644 17.1591 10.0995 17.6565L12.2762 19.65C12.7858 20.1168 13.5676 20.1168 14.0773 19.65L19.9006 14.3167Z" fill="#86B8EE"/>
<path fill-rule="evenodd" clip-rule="evenodd" d="M15 2.66675C7.63622 2.66675 1.66669 8.63629 1.66669 16.0001C1.66669 23.3639 7.63622 29.3334 15 29.3334C22.3638 29.3334 28.3334 23.3639 28.3334 16.0001C28.3334 8.63629 22.3638 2.66675 15 2.66675ZM4.33335 16.0001C4.33335 10.109 9.10898 5.33341 15 5.33341C20.8911 5.33341 25.6667 10.109 25.6667 16.0001C25.6667 21.8911 20.8911 26.6667 15 26.6667C9.10898 26.6667 4.33335 21.8911 4.33335 16.0001Z" fill="#86B8EE"/>
</svg>
