<svg width="20" height="20" viewBox="0 0 20 20" fill="none" xmlns="http://www.w3.org/2000/svg">
<path d="M9.99996 7.08342C9.99996 6.62318 9.62686 6.25008 9.16663 6.25008C8.70639 6.25008 8.33329 6.62318 8.33329 7.08342V11.2501C8.33329 11.7103 8.70639 12.0834 9.16663 12.0834H11.6666C12.1269 12.0834 12.5 11.7103 12.5 11.2501C12.5 10.7898 12.1269 10.4167 11.6666 10.4167H9.99996V7.08342Z" fill="#667185"/>
<path fill-rule="evenodd" clip-rule="evenodd" d="M9.99996 1.66675C5.39759 1.66675 1.66663 5.39771 1.66663 10.0001C1.66663 14.6025 5.39759 18.3334 9.99996 18.3334C14.6023 18.3334 18.3333 14.6025 18.3333 10.0001C18.3333 5.39771 14.6023 1.66675 9.99996 1.66675ZM3.33329 10.0001C3.33329 6.31818 6.31806 3.33341 9.99996 3.33341C13.6819 3.33341 16.6666 6.31818 16.6666 10.0001C16.6666 13.682 13.6819 16.6667 9.99996 16.6667C6.31806 16.6667 3.33329 13.682 3.33329 10.0001Z" fill="#667185"/>
</svg>
