<svg width="18" height="16" viewBox="0 0 18 16" fill="none" xmlns="http://www.w3.org/2000/svg">
<path d="M3.99999 5.08325C3.99999 4.62301 4.37309 4.24992 4.83332 4.24992H8.99999C9.46023 4.24992 9.83332 4.62301 9.83332 5.08325C9.83332 5.54349 9.46023 5.91658 8.99999 5.91658H4.83332C4.37309 5.91658 3.99999 5.54349 3.99999 5.08325Z" fill="#667185"/>
<path d="M4.83332 7.58325C4.37309 7.58325 3.99999 7.95635 3.99999 8.41658C3.99999 8.87682 4.37309 9.24992 4.83332 9.24992H12.3333C12.7936 9.24992 13.1667 8.87682 13.1667 8.41658C13.1667 7.95635 12.7936 7.58325 12.3333 7.58325H4.83332Z" fill="#667185"/>
<path fill-rule="evenodd" clip-rule="evenodd" d="M11.8333 14.6249L13 13.7499C13.2885 13.5335 13.6394 13.4166 14 13.4166C15.8409 13.4166 17.3333 11.9242 17.3333 10.0833V3.41659C17.3333 1.57564 15.8409 0.083252 14 0.083252H3.99999C2.15904 0.083252 0.666656 1.57564 0.666656 3.41659V10.0833C0.666656 11.9242 2.15904 13.4166 3.99999 13.4166H5.66666C6.02727 13.4166 6.37816 13.5335 6.66666 13.7499L7.83332 14.6249C9.01851 15.5138 10.6481 15.5138 11.8333 14.6249ZM14 11.7499C13.2788 11.7499 12.577 11.9838 12 12.4166L10.8333 13.2916C10.2407 13.736 9.42592 13.736 8.83332 13.2916L7.66666 12.4166C7.08967 11.9838 6.38789 11.7499 5.66666 11.7499H3.99999C3.07952 11.7499 2.33332 11.0037 2.33332 10.0833V3.41659C2.33332 2.49611 3.07952 1.74992 3.99999 1.74992H14C14.9205 1.74992 15.6667 2.49611 15.6667 3.41659V10.0833C15.6667 11.0037 14.9205 11.7499 14 11.7499Z" fill="#667185"/>
</svg>
