<svg width="20" height="18" viewBox="0 0 20 18" fill="none" xmlns="http://www.w3.org/2000/svg">
<path fill-rule="evenodd" clip-rule="evenodd" d="M11.9121 0.987571C10.7644 0.184157 9.23675 0.184155 8.08902 0.987569L2.3577 4.99949C1.39219 5.67535 0.855336 6.81083 0.945728 7.98592L1.53324 15.6236C1.64405 17.0641 2.94922 18.1111 4.37943 17.9068L7.02078 17.5294C8.2524 17.3535 9.16722 16.2987 9.16722 15.0545V14C9.16722 13.5398 9.54032 13.1667 10.0006 13.1667C10.4608 13.1667 10.8339 13.5398 10.8339 14V15.0545C10.8339 16.2987 11.7487 17.3535 12.9803 17.5294L15.6217 17.9068C17.0519 18.1111 18.3571 17.0641 18.4679 15.6236L19.0554 7.98592C19.1458 6.81083 18.6089 5.67535 17.6434 4.99949L11.9121 0.987571ZM9.04479 2.35296C9.61865 1.95125 10.3825 1.95125 10.9563 2.35296L16.6876 6.36488C17.1704 6.70281 17.4388 7.27055 17.3936 7.85809L16.8061 15.4958C16.7692 15.976 16.3341 16.3249 15.8574 16.2568L13.216 15.8795C12.8055 15.8209 12.5006 15.4693 12.5006 15.0545V14C12.5006 12.6193 11.3813 11.5 10.0006 11.5C8.61985 11.5 7.50056 12.6193 7.50056 14V15.0545C7.50056 15.4693 7.19562 15.8209 6.78508 15.8795L4.14373 16.2568C3.667 16.3249 3.23194 15.976 3.195 15.4958L2.60749 7.85809C2.56229 7.27055 2.83072 6.70281 3.31347 6.36488L9.04479 2.35296Z" fill="#EB5017"/>
</svg>
