<svg width="18" height="18" viewBox="0 0 18 18" fill="none" xmlns="http://www.w3.org/2000/svg">
<path fill-rule="evenodd" clip-rule="evenodd" d="M7.33332 0.666748C6.41285 0.666748 5.66666 1.41294 5.66666 2.33341V5.66675H2.33332C1.41285 5.66675 0.666656 6.41294 0.666656 7.33342V10.6667C0.666656 11.5872 1.41285 12.3334 2.33332 12.3334H5.66666V15.6667C5.66666 16.5872 6.41285 17.3334 7.33332 17.3334H10.6667C11.5871 17.3334 12.3333 16.5872 12.3333 15.6667V12.3334H15.6667C16.5871 12.3334 17.3333 11.5872 17.3333 10.6667V7.33342C17.3333 6.41294 16.5871 5.66675 15.6667 5.66675H12.3333V2.33341C12.3333 1.41294 11.5871 0.666748 10.6667 0.666748H7.33332ZM5.66666 7.33342C6.58713 7.33342 7.33332 6.58722 7.33332 5.66675V2.33341H10.6667V5.66675C10.6667 6.58722 11.4128 7.33342 12.3333 7.33342H15.6667V10.6667H12.3333C11.4128 10.6667 10.6667 11.4129 10.6667 12.3334V15.6667H7.33332V12.3334C7.33332 11.4129 6.58713 10.6667 5.66666 10.6667H2.33332V7.33342H5.66666Z" fill="#667185"/>
</svg>
