<svg width="18" height="19" viewBox="0 0 18 19" fill="none" xmlns="http://www.w3.org/2000/svg">
<path fill-rule="evenodd" clip-rule="evenodd" d="M5.66666 0.833252C6.12689 0.833252 6.49999 1.20635 6.49999 1.66659V2.49992H11.5V1.66659C11.5 1.20635 11.8731 0.833252 12.3333 0.833252C12.7936 0.833252 13.1667 1.20635 13.1667 1.66659V2.49992H14C15.8409 2.49992 17.3333 3.9923 17.3333 5.83325V14.9999C17.3333 16.8409 15.8409 18.3333 14 18.3333H3.99999C2.15904 18.3333 0.666656 16.8409 0.666656 14.9999V5.83325C0.666656 3.9923 2.15904 2.49992 3.99999 2.49992H4.83332V1.66659C4.83332 1.20635 5.20642 0.833252 5.66666 0.833252ZM11.5 4.16659C11.5 4.62682 11.8731 4.99992 12.3333 4.99992C12.7936 4.99992 13.1667 4.62682 13.1667 4.16659H14C14.9205 4.16659 15.6667 4.91278 15.6667 5.83325V6.24992H2.33332V5.83325C2.33332 4.91278 3.07952 4.16659 3.99999 4.16659H4.83332C4.83332 4.62682 5.20642 4.99992 5.66666 4.99992C6.12689 4.99992 6.49999 4.62682 6.49999 4.16659H11.5ZM15.6667 7.91658H2.33332V14.9999C2.33332 15.9204 3.07952 16.6666 3.99999 16.6666H14C14.9205 16.6666 15.6667 15.9204 15.6667 14.9999V7.91658Z" fill="#667185"/>
</svg>
