<svg width="32" height="32" viewBox="0 0 32 32" fill="none" xmlns="http://www.w3.org/2000/svg">
<g clip-path="url(#clip0_328_20901)">
<path d="M11.6661 12.6667C11.6661 11.9303 11.0692 11.3333 10.3328 11.3333C9.59642 11.3333 8.99947 11.9303 8.99947 12.6667V15.3333C8.99947 16.0697 9.59642 16.6667 10.3328 16.6667C11.0692 16.6667 11.6661 16.0697 11.6661 15.3333V12.6667Z" fill="#0F973D"/>
<path d="M10.3328 17.3333C11.0692 17.3333 11.6661 17.9303 11.6661 18.6667V21.3333C11.6661 22.0697 11.0692 22.6667 10.3328 22.6667C9.59642 22.6667 8.99947 22.0697 8.99947 21.3333V18.6667C8.99947 17.9303 9.59642 17.3333 10.3328 17.3333Z" fill="#0F973D"/>
<path d="M11.6661 24.6667C11.6661 23.9303 11.0692 23.3333 10.3328 23.3333C9.59642 23.3333 8.99947 23.9303 8.99947 24.6667V27.3333C8.99947 28.0697 9.59642 28.6667 10.3328 28.6667C11.0692 28.6667 11.6661 28.0697 11.6661 27.3333V24.6667Z" fill="#0F973D"/>
<path fill-rule="evenodd" clip-rule="evenodd" d="M30.9995 26.6667L30.9995 26.2776C30.9995 25.4496 30.8067 24.633 30.4364 23.8925L29.2301 21.4799C28.8022 20.624 28.8657 19.6044 29.3965 18.8082L30.1037 17.7473C30.6878 16.8712 30.9995 15.8418 30.9995 14.7889V13.3333C30.9995 10.3878 28.6116 8 25.6661 8H7.49821C4.30742 8 1.83867 10.7966 2.23443 13.9627C2.33005 14.7276 2.59123 15.4625 2.9998 16.1163L4.54381 18.5867C5.08426 19.4514 5.08426 20.5486 4.54381 21.4133L3.14348 23.6539C2.61371 24.5015 2.3328 25.4809 2.3328 26.4805V26.6667C2.3328 29.6122 4.72062 32 7.66614 32H25.6661C28.6117 32 30.9995 29.6122 30.9995 26.6667ZM28.3328 26.2776L28.3328 26.6667C28.3328 28.1394 27.1389 29.3333 25.6661 29.3333L7.66614 29.3333C6.19338 29.3333 4.99947 28.1394 4.99947 26.6667V26.4805C4.99947 25.9807 5.13992 25.491 5.40481 25.0672L6.80514 22.8267C7.88604 21.0972 7.88604 18.9028 6.80514 17.1733L5.26113 14.7029C5.05795 14.3778 4.92806 14.0124 4.88051 13.632C4.68369 12.0574 5.91142 10.6667 7.49821 10.6667L25.6661 10.6667C27.1389 10.6667 28.3328 11.8606 28.3328 13.3333V14.7889C28.3328 15.3154 28.177 15.8301 27.8849 16.2681L27.1777 17.329C26.116 18.9214 25.9891 20.9607 26.845 22.6725L28.0513 25.085C28.2364 25.4553 28.3328 25.8636 28.3328 26.2776Z" fill="#0F973D"/>
</g>
<defs>
<clipPath id="clip0_328_20901">
<rect width="32" height="32" fill="white"/>
</clipPath>
</defs>
</svg>
