<svg width="18" height="14" viewBox="0 0 18 14" fill="none" xmlns="http://www.w3.org/2000/svg">
<path d="M3.1665 0.333374H14.8332C16.2138 0.333374 17.3331 1.45254 17.3332 2.83315C17.2301 2.83312 17.1252 2.85235 17.0237 2.89298L9.61882 5.85492C9.22147 6.01386 8.7782 6.01386 8.38085 5.85492L0.975996 2.89298C0.874426 2.85235 0.769598 2.83312 0.666504 2.83315C0.666624 1.45254 1.78587 0.333374 3.1665 0.333374Z" fill="#F56630"/>
<path d="M0.666504 4.56423V11.1667C0.666504 12.5474 1.78579 13.6667 3.1665 13.6667H14.8332C16.2139 13.6667 17.3332 12.5474 17.3332 11.1667V4.56423L10.2378 7.40238C9.4431 7.72026 8.55657 7.72026 7.76187 7.40238L0.666504 4.56423Z" fill="#F56630"/>
</svg>
