<svg width="32" height="33" viewBox="0 0 32 33" fill="none" xmlns="http://www.w3.org/2000/svg">
<path fill-rule="evenodd" clip-rule="evenodd" d="M15.9968 0C12.7842 0 10.1799 3.47638 10.1799 7.76471C10.1799 12.053 12.7842 15.5294 15.9968 15.5294C19.2094 15.5294 21.8137 12.053 21.8137 7.76471C21.8137 3.47638 19.2094 0 15.9968 0ZM13.0883 7.76471C13.0883 5.62054 14.3905 3.88235 15.9968 3.88235C17.6031 3.88235 18.9052 5.62054 18.9052 7.76471C18.9052 9.90887 17.6031 11.6471 15.9968 11.6471C14.3905 11.6471 13.0883 9.90887 13.0883 7.76471Z" fill="#86B8EE"/>
<path fill-rule="evenodd" clip-rule="evenodd" d="M15.9968 33C14.3435 33 11.9597 32.4784 10.1506 31.3686C9.26315 30.8243 8.31096 30.0168 7.7493 28.8088C7.4528 28.1711 7.26546 27.4194 7.27159 26.5826C7.27766 25.7539 7.47236 24.968 7.79117 24.2478C9.24899 20.9545 12.2733 17.4706 15.9968 17.4706C19.7203 17.4706 22.7446 20.9545 24.2024 24.2478C24.5212 24.968 24.7159 25.7539 24.722 26.5826C24.7281 27.4194 24.5408 28.1711 24.2443 28.8088C23.6826 30.0168 22.7304 30.8243 21.843 31.3686C20.0339 32.4784 17.6501 33 15.9968 33ZM10.2952 26.2228C10.1838 26.4744 10.1801 26.5993 10.1799 26.6206C10.1798 26.6346 10.1794 26.6732 10.2205 26.7615C10.336 27.0099 10.6713 27.4154 11.3651 27.841C12.7184 28.6711 14.6718 29.1176 15.9968 29.1176C17.3218 29.1176 19.2752 28.6711 20.6285 27.841C21.3223 27.4154 21.6576 27.0099 21.7731 26.7615C21.8142 26.6732 21.8138 26.6356 21.8137 26.6216C21.8135 26.6003 21.8098 26.4744 21.6984 26.2228C20.5682 23.6695 18.3577 21.3529 15.9968 21.3529C13.6358 21.3529 11.4254 23.6695 10.2952 26.2228Z" fill="#86B8EE"/>
<path fill-rule="evenodd" clip-rule="evenodd" d="M2.18166 13.5882C2.18166 10.372 4.1349 7.76471 6.54433 7.76471C8.95377 7.76471 10.907 10.372 10.907 13.5882C10.907 16.8045 8.95377 19.4118 6.54433 19.4118C4.1349 19.4118 2.18166 16.8045 2.18166 13.5882ZM6.54433 11.6471C5.74119 11.6471 5.09011 12.5162 5.09011 13.5882C5.09011 14.6603 5.74119 15.5294 6.54433 15.5294C7.34748 15.5294 7.99856 14.6603 7.99856 13.5882C7.99856 12.5162 7.34748 11.6471 6.54433 11.6471Z" fill="#86B8EE"/>
<path d="M2.75714 28.0395C2.40007 28.9998 1.52741 29.3919 0.808009 28.9152C0.0886045 28.4386 -0.205123 27.2737 0.15195 26.3134C0.686209 24.8766 1.49487 23.434 2.51213 22.3302C3.52979 21.2259 4.83383 20.3824 6.32209 20.3824C7.12524 20.3824 7.77631 21.2514 7.77631 22.3235C7.77631 23.3956 7.12524 24.2647 6.32209 24.2647C5.6808 24.2647 5.00398 24.6296 4.34671 25.3428C3.68904 26.0564 3.1287 27.0402 2.75714 28.0395Z" fill="#86B8EE"/>
<path fill-rule="evenodd" clip-rule="evenodd" d="M21.5375 13.5882C21.5375 10.372 23.4907 7.76471 25.9002 7.76471C28.3096 7.76471 30.2628 10.372 30.2628 13.5882C30.2628 16.8045 28.3096 19.4118 25.9002 19.4118C23.4907 19.4118 21.5375 16.8045 21.5375 13.5882ZM25.9002 11.6471C25.097 11.6471 24.4459 12.5162 24.4459 13.5882C24.4459 14.6603 25.097 15.5294 25.9002 15.5294C26.7033 15.5294 27.3544 14.6603 27.3544 13.5882C27.3544 12.5162 26.7033 11.6471 25.9002 11.6471Z" fill="#86B8EE"/>
<path d="M31.848 26.3134C32.2051 27.2737 31.9114 28.4386 31.192 28.9152C30.4726 29.3919 29.5999 28.9998 29.2429 28.0395C28.8713 27.0402 28.311 26.0564 27.6533 25.3428C26.996 24.6296 26.3192 24.2647 25.6779 24.2647C24.8748 24.2647 24.2237 23.3956 24.2237 22.3235C24.2237 21.2514 24.8748 20.3824 25.6779 20.3824C27.1662 20.3824 28.4702 21.2259 29.4879 22.3302C30.5051 23.434 31.3138 24.8766 31.848 26.3134Z" fill="#86B8EE"/>
</svg>
