<svg width="32" height="32" viewBox="0 0 32 32" fill="none" xmlns="http://www.w3.org/2000/svg">
<path d="M10.6667 7.99992C9.93029 7.99992 9.33333 8.59687 9.33333 9.33325C9.33333 10.0696 9.93029 10.6666 10.6667 10.6666H21.3333C22.0697 10.6666 22.6667 10.0696 22.6667 9.33325C22.6667 8.59687 22.0697 7.99992 21.3333 7.99992H10.6667Z" fill="#0F973D"/>
<path d="M9.33333 15.9999C9.33333 15.2635 9.93029 14.6666 10.6667 14.6666H21.3333C22.0697 14.6666 22.6667 15.2635 22.6667 15.9999C22.6667 16.7363 22.0697 17.3333 21.3333 17.3333H10.6667C9.93029 17.3333 9.33333 16.7363 9.33333 15.9999Z" fill="#0F973D"/>
<path d="M10.6667 21.3333C9.93029 21.3333 9.33333 21.9302 9.33333 22.6666C9.33333 23.403 9.93029 23.9999 10.6667 23.9999H14.2222C14.9586 23.9999 15.5556 23.403 15.5556 22.6666C15.5556 21.9302 14.9586 21.3333 14.2222 21.3333H10.6667Z" fill="#0F973D"/>
<path d="M17.7778 21.3333C17.0414 21.3333 16.4444 21.9302 16.4444 22.6666C16.4444 23.403 17.0414 23.9999 17.7778 23.9999H21.3333C22.0697 23.9999 22.6667 23.403 22.6667 22.6666C22.6667 21.9302 22.0697 21.3333 21.3333 21.3333H17.7778Z" fill="#0F973D"/>
<path fill-rule="evenodd" clip-rule="evenodd" d="M20.6424 29.2016C20.7923 29.239 20.9377 29.2928 21.0759 29.3619C24.2571 30.9525 28 28.6392 28 25.0826V6.66658C28 3.72107 25.6122 1.33325 22.6667 1.33325H9.33333C6.38781 1.33325 4 3.72107 4 6.66658V25.0826C4 28.6392 7.74293 30.9525 10.9241 29.3619C11.0623 29.2928 11.2077 29.239 11.3576 29.2016L15.3532 28.2026C15.7779 28.0965 16.2221 28.0965 16.6468 28.2026L20.6424 29.2016ZM6.66667 6.66658C6.66667 5.19383 7.86057 3.99992 9.33333 3.99992H22.6667C24.1394 3.99992 25.3333 5.19383 25.3333 6.66658V25.0826C25.3333 26.6569 23.6766 27.6808 22.2685 26.9768C21.9562 26.8207 21.6279 26.6992 21.2892 26.6145L17.2935 25.6156C16.4442 25.4033 15.5558 25.4033 14.7065 25.6156L10.7108 26.6145C10.3721 26.6992 10.0438 26.8207 9.73154 26.9768C8.32343 27.6808 6.66667 26.6569 6.66667 25.0826V6.66658Z" fill="#0F973D"/>
</svg>
