<svg width="130" height="25" viewBox="0 0 130 25" fill="none" xmlns="http://www.w3.org/2000/svg">
<path d="M37.2073 5.05858L37.2158 4.93358H37.3315V2.75305V2.66756L37.2518 2.63656C36.8537 2.48167 36.3721 2.42163 35.8694 2.42163C33.8698 2.42163 32.3132 3.34709 31.5178 4.95971V2.78232V2.65732H31.3928H28.9512H28.8262V2.78232V17.6933V17.8183H28.9512H31.3928H31.5178V17.6933V10.061C31.5178 8.32528 31.9282 7.05584 32.6745 6.22126C33.4187 5.38904 34.5143 4.97 35.9279 4.97C36.3215 4.97 36.6914 4.99416 37.0815 5.04318V5.05858H37.2065H37.2073Z" fill="#101928" stroke="#101928" stroke-width="0.249997"/>
<path d="M52.7619 17.8182H52.8869V17.6932V2.90723V2.78223V2.78146H52.7619V2.65723H50.3203H50.1953V2.78223V5.00203C49.2083 3.30438 47.1878 2.24439 44.884 2.24439C40.7616 2.24439 37.7529 5.58413 37.7529 10.2373C37.7529 14.8905 40.7616 18.231 44.884 18.231C47.1878 18.231 49.2083 17.171 50.1953 15.4734V17.6932V17.8182H50.3203H52.7619ZM48.9468 6.31127L48.9468 6.31128L48.9481 6.31275C49.854 7.31694 50.3116 8.64076 50.3116 10.2365C50.3116 11.8323 49.854 13.1561 48.9481 14.1603L48.9468 14.1618C48.0714 15.1637 46.886 15.6811 45.4362 15.6811C43.9872 15.6811 42.801 15.1641 41.8958 14.1611C41.0183 13.1565 40.5609 11.832 40.5609 10.2365C40.5609 8.64107 41.0183 7.31663 41.8957 6.31201C42.801 5.30895 43.9872 4.79199 45.4362 4.79199C46.886 4.79199 48.0714 5.30941 48.9468 6.31127Z" fill="#101928" stroke="#101928" stroke-width="0.249997"/>
<path d="M68.8123 2.78247V2.65747H68.6873H68.6858H66.2441H66.1191V2.78247V11.2396C66.1191 12.4431 65.6537 13.4477 64.8671 14.1526C64.0795 14.8584 62.9624 15.27 61.6512 15.27C60.5249 15.27 59.7237 14.9672 59.1997 14.3422C58.6715 13.7122 58.4042 12.731 58.4042 11.3282V2.78247V2.65747H58.2792H55.8375H55.7125V2.78247V11.9174C55.7125 13.8093 56.205 15.2874 57.1301 16.2935C58.0566 17.3011 59.4016 17.8184 61.0705 17.8184C63.3166 17.8184 65.1598 16.9113 66.1199 15.2639V16.2492C66.1199 18.0434 65.6882 19.3718 64.8985 20.2508C64.1107 21.1276 62.9495 21.5759 61.4487 21.5759C59.7322 21.5759 58.0772 20.9671 56.9109 19.8996L56.8127 19.8097L56.7292 19.9134L55.305 21.6818L55.2358 21.7677L55.3124 21.8471C56.7083 23.2926 59.0121 24.1251 61.5072 24.1251C63.7999 24.1251 65.6316 23.4393 66.8891 22.1005C68.1455 20.7628 68.8123 18.7906 68.8123 16.25V2.78247Z" fill="#101928" stroke="#101928" stroke-width="0.249997"/>
<path d="M84.5825 17.8183H84.7075V17.6933V17.6926V8.14475C84.7075 6.28267 84.2297 4.80483 83.3122 3.79136C82.393 2.77605 81.0478 2.24378 79.3495 2.24378C77.1103 2.24378 75.2944 3.146 74.3586 4.78541V2.78162V2.65662H74.2336H71.792H71.667V2.78162V17.6933V17.8183H71.792H74.2336H74.3586V17.6933V8.82333C74.3586 7.60424 74.8177 6.59979 75.5931 5.89907C76.3697 5.19731 77.4721 4.79292 78.7688 4.79292C79.9098 4.79292 80.7105 5.09594 81.2308 5.72044C81.7554 6.3502 82.0158 7.33124 82.0158 8.73475V17.6933V17.8183H82.1408H84.5825Z" fill="#101928" stroke="#101928" stroke-width="0.249997"/>
<path d="M102.082 17.8182H102.207V17.6932V2.90723V2.78223V2.78146H102.082V2.65723H99.6406H99.5156V2.78223V5.00203C98.5286 3.30438 96.5081 2.24439 94.2043 2.24439C90.082 2.24439 87.0732 5.58413 87.0732 10.2373C87.0732 14.8905 90.0819 18.231 94.2043 18.231C96.5081 18.231 98.5286 17.171 99.5156 15.4734V17.6932V17.8182H99.6406H102.082ZM98.2671 6.31127L98.2671 6.31128L98.2684 6.31275C99.1744 7.31694 99.6319 8.64076 99.6319 10.2365C99.6319 11.8323 99.1744 13.1561 98.2684 14.1603L98.2671 14.1618C97.3917 15.1637 96.2064 15.6811 94.7565 15.6811C93.3075 15.6811 92.1213 15.1641 91.2161 14.1611C90.3386 13.1565 89.8812 11.832 89.8812 10.2365C89.8812 8.64107 90.3386 7.31663 91.2161 6.31201C92.1213 5.30895 93.3075 4.79199 94.7565 4.79199C96.2064 4.79199 97.3917 5.30941 98.2671 6.31127Z" fill="#101928" stroke="#101928" stroke-width="0.249997"/>
<path d="M113.292 2.78247V2.65747H113.167H110.725H110.724H110.599V2.78247V12.1246C110.599 13.9236 111.243 15.4531 112.378 16.5325C113.513 17.6114 115.13 18.232 117.061 18.232C118.993 18.232 120.609 17.6114 121.744 16.5325C122.88 15.4531 123.524 13.9236 123.524 12.1246V2.78247V2.65747H123.399H120.957H120.832V2.78247V11.9767C120.832 13.1907 120.483 14.1124 119.849 14.7311C119.214 15.3503 118.275 15.6829 117.062 15.6829C115.849 15.6829 114.91 15.3503 114.275 14.7311C113.64 14.1124 113.292 13.1907 113.292 11.9767V2.78247Z" fill="#101928" stroke="#101928" stroke-width="0.249997"/>
<path d="M126.671 2.65747H126.546V2.78247V17.6942V17.8192H126.671H129.113H129.238V17.6942V2.78247V2.65747H129.113H126.671Z" fill="#101928" stroke="#101928" stroke-width="0.249997"/>
<path d="M18.0288 12.8567L16.7202 11.5481C16.6871 11.515 16.6987 11.4595 16.741 11.441C17.2032 11.2415 17.6353 10.9843 18.0288 10.68C18.1698 10.5707 18.3054 10.4559 18.4355 10.335C18.8153 9.98222 19.1488 9.58093 19.426 9.14035C19.4268 9.13881 19.4276 9.13804 19.4284 9.1365C19.5963 8.86923 19.7442 8.58733 19.8689 8.29387C20.1701 7.58525 20.338 6.80655 20.3411 5.98856C20.3411 5.98856 20.3411 5.98779 20.3411 5.98702C20.3411 5.97932 20.3411 5.97162 20.3411 5.96391C20.3411 5.1467 20.177 4.36876 19.8797 3.65938C19.7804 3.42137 19.6656 3.19108 19.537 2.97002C19.537 2.96848 19.5354 2.96771 19.5354 2.96694C18.957 1.97334 18.0997 1.16305 17.0714 0.641604C17.0676 0.639293 17.063 0.636983 17.0591 0.635442C16.2635 0.234151 14.9186 0.00616186 13.9682 0C13.9551 0 14.3903 0 14.3772 0C14.3641 0 14.3518 0 14.3387 0H1.77693C0.795651 0 0 0.795651 0 1.77693V14.4473C0 14.8578 0.0415926 15.2591 0.120927 15.6465C0.120927 15.6473 0.120927 15.6481 0.120927 15.6496C0.268811 16.3721 0.547636 17.0476 0.931212 17.6491C0.931212 17.6507 0.932752 17.6514 0.933522 17.653C1.5759 18.6597 2.5125 19.4607 3.62164 19.9344C3.62549 19.9359 3.62934 19.9375 3.63319 19.939C3.64166 19.9429 3.6509 19.9467 3.65938 19.9506C4.23012 20.1901 4.84554 20.3426 5.49022 20.3935C5.64658 20.4058 5.8037 20.4119 5.96314 20.4119C6.78575 20.4119 7.56908 20.2456 8.28154 19.9444C8.78451 19.7318 9.25281 19.4522 9.6749 19.1164C9.67567 19.1164 9.67644 19.1156 9.67721 19.1149C9.68491 19.1087 9.69338 19.1025 9.70108 19.0956C9.70339 19.0941 9.7057 19.0918 9.70802 19.0902C10.2541 18.6489 10.7209 18.1136 11.0829 17.5082C11.5959 16.6509 11.9001 15.655 11.9247 14.5898V14.5874C11.9255 14.5412 11.9263 14.495 11.9263 14.4488C11.9263 14.4026 11.9263 14.3564 11.9247 14.3102V12.1805C11.9247 12.0888 12.0357 12.0426 12.1004 12.1073L17.5012 17.5082L18.7652 18.7721C19.3483 19.3552 20.3442 18.9423 20.3442 18.1182V15.836C20.3442 15.4139 20.1763 15.0088 19.8774 14.7099L18.0258 12.8583L18.0288 12.8567ZM14.3749 8.29387H8.68592C8.46332 8.29387 8.28231 8.4741 8.28231 8.69747V14.4973V14.4981C8.20914 16.1248 6.5724 17.1785 5.06967 16.5492C4.25785 16.2096 3.70867 15.4262 3.65938 14.5397V4.01522C3.65938 3.82113 3.81727 3.66323 4.01137 3.66323L8.87462 3.66015C8.87462 3.66015 8.87462 3.66169 8.87385 3.66246C9.89441 3.66246 10.9481 3.66246 11.9263 3.66246C12.8398 3.66246 13.6878 3.66246 14.381 3.664C15.6357 3.66554 16.6709 4.70997 16.6755 5.96083C16.6802 7.24327 15.6627 8.27615 14.3749 8.29464V8.29387Z" fill="#E8562E"/>
</svg>
