<svg width="30" height="27" viewBox="0 0 30 27" fill="none" xmlns="http://www.w3.org/2000/svg">
<path d="M9.66665 11.3334C10.403 11.3334 11 11.9304 11 12.6667V14.0001H12.3333C13.0697 14.0001 13.6667 14.597 13.6667 15.3334C13.6667 16.0698 13.0697 16.6667 12.3333 16.6667H11V18.0001C11 18.7365 10.403 19.3334 9.66665 19.3334C8.93027 19.3334 8.33332 18.7365 8.33332 18.0001V16.6667H6.99999C6.26361 16.6667 5.66665 16.0698 5.66665 15.3334C5.66665 14.597 6.26361 14.0001 6.99999 14.0001H8.33332V12.6667C8.33332 11.9304 8.93027 11.3334 9.66665 11.3334Z" fill="#F5B546"/>
<path d="M20.3333 11.3334C21.0697 11.3334 21.6667 11.9304 21.6667 12.6667C21.6667 13.4031 21.0697 14.0001 20.3333 14.0001C19.5969 14.0001 19 13.4031 19 12.6667C19 11.9304 19.5969 11.3334 20.3333 11.3334Z" fill="#F5B546"/>
<path d="M21.6667 18.0001C21.6667 17.2637 21.0697 16.6667 20.3333 16.6667C19.5969 16.6667 19 17.2637 19 18.0001C19 18.7365 19.5969 19.3334 20.3333 19.3334C21.0697 19.3334 21.6667 18.7365 21.6667 18.0001Z" fill="#F5B546"/>
<path d="M23 14.0001C23.7364 14.0001 24.3333 14.597 24.3333 15.3334C24.3333 16.0698 23.7364 16.6667 23 16.6667C22.2636 16.6667 21.6667 16.0698 21.6667 15.3334C21.6667 14.597 22.2636 14.0001 23 14.0001Z" fill="#F5B546"/>
<path d="M19 15.3334C19 14.597 18.403 14.0001 17.6667 14.0001C16.9303 14.0001 16.3333 14.597 16.3333 15.3334C16.3333 16.0698 16.9303 16.6667 17.6667 16.6667C18.403 16.6667 19 16.0698 19 15.3334Z" fill="#F5B546"/>
<path fill-rule="evenodd" clip-rule="evenodd" d="M20.3332 2.00005C20.3332 1.26367 19.7362 0.666728 18.9999 0.666748C18.2635 0.666768 17.6666 1.26374 17.6666 2.00012C17.6666 2.2312 17.5863 2.60749 17.3846 2.88769C17.2318 3.09991 16.9654 3.33341 16.3333 3.33341C15.6269 3.33341 14.954 3.47949 14.4014 3.86364C13.8245 4.26472 13.5194 4.82746 13.3978 5.38027C13.3673 5.51901 13.3479 5.65791 13.3378 5.79573C7.56299 5.35649 2.31495 9.29323 1.1676 15.03L0.870159 16.5172C0.476335 18.4863 0.830593 20.5315 1.86376 22.2535C3.74301 25.3855 7.49126 26.8655 11.0033 25.862L12.8333 25.3391C14.2494 24.9345 15.7505 24.9345 17.1667 25.3391L18.9966 25.862C22.5087 26.8655 26.257 25.3855 28.1362 22.2535C29.1694 20.5315 29.5236 18.4863 29.1298 16.5172L28.8324 15.03C27.7599 9.66767 23.1046 5.87806 17.7852 5.76493C18.5477 5.49718 19.1342 5.02142 19.5487 4.4458C20.1469 3.61489 20.3333 2.65785 20.3332 2.00005ZM14.5201 8.57742C14.8208 8.6933 15.1623 8.70047 15.4801 8.57741C15.7973 8.56419 16.1142 8.53785 16.4298 8.4984C21.0367 7.92253 25.307 11.0004 26.2175 15.553L26.5149 17.0402C26.7787 18.3588 26.5414 19.7284 25.8496 20.8815C24.5911 22.9789 22.0811 23.9699 19.7292 23.2979L17.8992 22.7751C16.0043 22.2337 13.9957 22.2337 12.1007 22.7751L10.2707 23.2979C7.91887 23.9699 5.40885 22.9789 4.15041 20.8815C3.45855 19.7284 3.22132 18.3588 3.48504 17.0402L3.78248 15.553C4.693 11.0004 8.96326 7.92253 13.5702 8.4984C13.8859 8.53786 14.2028 8.5642 14.5201 8.57742Z" fill="#F5B546"/>
</svg>
