<svg width="28" height="28" viewBox="0 0 28 28" fill="none" xmlns="http://www.w3.org/2000/svg">
<path d="M18.9006 12.3167C19.4436 11.8193 19.4806 10.9759 18.9833 10.4329C18.4859 9.88984 17.6425 9.8528 17.0995 10.3501L12.1767 14.8587L10.9006 13.6899C10.3575 13.1926 9.51411 13.2296 9.01676 13.7727C8.5194 14.3157 8.55644 15.1591 9.09948 15.6565L11.2762 17.65C11.7858 18.1168 12.5676 18.1168 13.0773 17.65L18.9006 12.3167Z" fill="#86B8EE"/>
<path fill-rule="evenodd" clip-rule="evenodd" d="M14 0.666748C6.63622 0.666748 0.666687 6.63629 0.666687 14.0001C0.666687 21.3639 6.63622 27.3334 14 27.3334C21.3638 27.3334 27.3334 21.3639 27.3334 14.0001C27.3334 6.63629 21.3638 0.666748 14 0.666748ZM3.33335 14.0001C3.33335 8.10904 8.10898 3.33341 14 3.33341C19.8911 3.33341 24.6667 8.10904 24.6667 14.0001C24.6667 19.8911 19.8911 24.6667 14 24.6667C8.10898 24.6667 3.33335 19.8911 3.33335 14.0001Z" fill="#86B8EE"/>
</svg>
