<svg width="29" height="24" viewBox="0 0 29 24" fill="none" xmlns="http://www.w3.org/2000/svg">
<path d="M9.66614 4.66667C9.66614 3.93029 9.06918 3.33333 8.3328 3.33333C7.59642 3.33333 6.99947 3.93029 6.99947 4.66667V7.33333C6.99947 8.06971 7.59642 8.66667 8.3328 8.66667C9.06918 8.66667 9.66614 8.06971 9.66614 7.33333V4.66667Z" fill="#0F973D"/>
<path d="M8.3328 9.33333C9.06918 9.33333 9.66614 9.93029 9.66614 10.6667V13.3333C9.66614 14.0697 9.06918 14.6667 8.3328 14.6667C7.59642 14.6667 6.99947 14.0697 6.99947 13.3333V10.6667C6.99947 9.93029 7.59642 9.33333 8.3328 9.33333Z" fill="#0F973D"/>
<path d="M9.66614 16.6667C9.66614 15.9303 9.06918 15.3333 8.3328 15.3333C7.59642 15.3333 6.99947 15.9303 6.99947 16.6667V19.3333C6.99947 20.0697 7.59642 20.6667 8.3328 20.6667C9.06918 20.6667 9.66614 20.0697 9.66614 19.3333V16.6667Z" fill="#0F973D"/>
<path fill-rule="evenodd" clip-rule="evenodd" d="M28.9995 18.6667L28.9995 18.2776C28.9995 17.4496 28.8067 16.633 28.4364 15.8925L27.2301 13.4799C26.8022 12.624 26.8657 11.6044 27.3965 10.8082L28.1037 9.7473C28.6878 8.8712 28.9995 7.84183 28.9995 6.7889V5.33333C28.9995 2.38782 26.6116 0 23.6661 0H5.49821C2.30742 0 -0.161334 2.79657 0.234433 5.96272C0.33005 6.72765 0.591232 7.46255 0.999801 8.11626L2.54381 10.5867C3.08426 11.4514 3.08426 12.5486 2.54381 13.4133L1.14348 15.6539C0.613708 16.5015 0.332803 17.4809 0.332803 18.4805V18.6667C0.332803 21.6122 2.72062 24 5.66614 24H23.6661C26.6117 24 28.9995 21.6122 28.9995 18.6667ZM26.3328 18.2776L26.3328 18.6667C26.3328 20.1394 25.1389 21.3333 23.6661 21.3333L5.66614 21.3333C4.19338 21.3333 2.99947 20.1394 2.99947 18.6667V18.4805C2.99947 17.9807 3.13992 17.491 3.40481 17.0672L4.80514 14.8267C5.88604 13.0972 5.88604 10.9028 4.80514 9.17334L3.26113 6.70293C3.05795 6.37783 2.92806 6.01237 2.88051 5.63196C2.68369 4.05741 3.91142 2.66667 5.49821 2.66667L23.6661 2.66667C25.1389 2.66667 26.3328 3.86057 26.3328 5.33333V6.7889C26.3328 7.31537 26.177 7.83005 25.8849 8.2681L25.1777 9.32898C24.116 10.9214 23.9891 12.9607 24.845 14.6725L26.0513 17.085C26.2364 17.4553 26.3328 17.8636 26.3328 18.2776Z" fill="#0F973D"/>
</svg>
