<svg width="28" height="28" viewBox="0 0 28 28" fill="none" xmlns="http://www.w3.org/2000/svg">
<path d="M5.99996 18.0001C5.26358 18.0001 4.66663 17.4031 4.66663 16.6667C4.66663 15.9304 5.26358 15.3334 5.99996 15.3334C6.73634 15.3334 7.33329 15.9304 7.33329 16.6667C7.33329 17.4031 6.73634 18.0001 5.99996 18.0001Z" fill="#F56630"/>
<path d="M9.99996 16.6667C9.99996 17.4031 10.5969 18.0001 11.3333 18.0001C12.0697 18.0001 12.6666 17.4031 12.6666 16.6667C12.6666 15.9304 12.0697 15.3334 11.3333 15.3334C10.5969 15.3334 9.99996 15.9304 9.99996 16.6667Z" fill="#F56630"/>
<path d="M16.6666 18.0001C15.9302 18.0001 15.3333 17.4031 15.3333 16.6667C15.3333 15.9304 15.9302 15.3334 16.6666 15.3334C17.403 15.3334 18 15.9304 18 16.6667C18 17.4031 17.403 18.0001 16.6666 18.0001Z" fill="#F56630"/>
<path fill-rule="evenodd" clip-rule="evenodd" d="M25.304 15.9308L21.9952 16.3444C21.9984 16.4515 22 16.5589 22 16.6667C22 22.5578 17.2243 27.3334 11.3333 27.3334C10.4521 27.3334 9.59404 27.2263 8.77231 27.0237L3.04045 26.3072C1.63071 26.131 0.650991 24.8169 0.884554 23.4155L1.23615 21.3059L0.976373 19.2277C0.773777 18.406 0.666626 17.548 0.666626 16.6667C0.666626 10.7757 5.44226 6.00008 11.3333 6.00008C11.4848 6.00008 11.6356 6.00324 11.7856 6.0095C12.8812 2.898 15.8452 0.666748 19.3333 0.666748C23.7516 0.666748 27.3333 4.24847 27.3333 8.66675C27.3333 9.31934 27.2549 9.95537 27.1064 10.5652L26.9304 11.9726L27.1724 13.4247C27.3749 14.6392 26.5258 15.7781 25.304 15.9308ZM19.3333 3.33341C22.2788 3.33341 24.6666 5.72123 24.6666 8.66675C24.6666 9.12547 24.609 9.56881 24.5013 9.99076L24.4806 10.072L24.2753 11.7142C24.2493 11.922 24.2536 12.1325 24.2881 12.3391L24.4564 13.3493L21.5844 13.7083C20.5898 10.2561 17.8987 7.52275 14.4718 6.4693C15.3093 4.61951 17.1724 3.33341 19.3333 3.33341ZM11.3333 8.66675C6.91502 8.66675 3.33329 12.2485 3.33329 16.6667C3.33329 17.3538 3.4196 18.0188 3.58128 18.6523L3.60201 18.7335L3.88524 20.9993C3.91521 21.2391 3.91026 21.482 3.87053 21.7204L3.54348 23.6826L9.26658 24.398L9.34778 24.4188C9.98125 24.5804 10.6462 24.6667 11.3333 24.6667C15.7516 24.6667 19.3333 21.085 19.3333 16.6667C19.3333 12.2485 15.7516 8.66675 11.3333 8.66675Z" fill="#F56630"/>
</svg>
