<svg width="24" height="30" viewBox="0 0 24 30" fill="none" xmlns="http://www.w3.org/2000/svg">
<path d="M5.33333 14.9999C5.33333 14.2635 5.93029 13.6666 6.66667 13.6666H17.3333C18.0697 13.6666 18.6667 14.2635 18.6667 14.9999C18.6667 15.7363 18.0697 16.3333 17.3333 16.3333H6.66667C5.93029 16.3333 5.33333 15.7363 5.33333 14.9999Z" fill="#F56630"/>
<path d="M6.66667 20.3333C5.93029 20.3333 5.33333 20.9302 5.33333 21.6666C5.33333 22.403 5.93029 22.9999 6.66667 22.9999H17.3333C18.0697 22.9999 18.6667 22.403 18.6667 21.6666C18.6667 20.9302 18.0697 20.3333 17.3333 20.3333H6.66667Z" fill="#F56630"/>
<path fill-rule="evenodd" clip-rule="evenodd" d="M5.33333 0.333252C2.38782 0.333252 0 2.72107 0 5.66658V24.3333C0 27.2788 2.38781 29.6666 5.33333 29.6666H18.6667C21.6122 29.6666 24 27.2788 24 24.3333V11.1148C24 9.86712 23.5626 8.65895 22.7638 7.70047L18.2237 2.25227C17.2104 1.03631 15.7093 0.333252 14.1265 0.333252H5.33333ZM2.66667 5.66658C2.66667 4.19383 3.86057 2.99992 5.33333 2.99992H13.3333V6.99992C13.3333 9.94544 15.7211 12.3333 18.6667 12.3333H21.3333V24.3333C21.3333 25.806 20.1394 26.9999 18.6667 26.9999H5.33333C3.86057 26.9999 2.66667 25.806 2.66667 24.3333V5.66658ZM20.9058 9.66658C20.8478 9.5769 20.7842 9.4904 20.7153 9.40763L16.1751 3.95943C16.1196 3.8928 16.0611 3.82925 16 3.76891V6.99992C16 8.47268 17.1939 9.66658 18.6667 9.66658H20.9058Z" fill="#F56630"/>
</svg>
