<svg width="24" height="29" viewBox="0 0 24 29" fill="none" xmlns="http://www.w3.org/2000/svg">
<path d="M6.66667 6.99992C5.93029 6.99992 5.33333 7.59687 5.33333 8.33325C5.33333 9.06963 5.93029 9.66658 6.66667 9.66658H17.3333C18.0697 9.66658 18.6667 9.06963 18.6667 8.33325C18.6667 7.59687 18.0697 6.99992 17.3333 6.99992H6.66667Z" fill="#0F973D"/>
<path d="M5.33333 14.9999C5.33333 14.2635 5.93029 13.6666 6.66667 13.6666H17.3333C18.0697 13.6666 18.6667 14.2635 18.6667 14.9999C18.6667 15.7363 18.0697 16.3333 17.3333 16.3333H6.66667C5.93029 16.3333 5.33333 15.7363 5.33333 14.9999Z" fill="#0F973D"/>
<path d="M6.66667 20.3333C5.93029 20.3333 5.33333 20.9302 5.33333 21.6666C5.33333 22.403 5.93029 22.9999 6.66667 22.9999H10.2222C10.9586 22.9999 11.5556 22.403 11.5556 21.6666C11.5556 20.9302 10.9586 20.3333 10.2222 20.3333H6.66667Z" fill="#0F973D"/>
<path d="M13.7778 20.3333C13.0414 20.3333 12.4444 20.9302 12.4444 21.6666C12.4444 22.403 13.0414 22.9999 13.7778 22.9999H17.3333C18.0697 22.9999 18.6667 22.403 18.6667 21.6666C18.6667 20.9302 18.0697 20.3333 17.3333 20.3333H13.7778Z" fill="#0F973D"/>
<path fill-rule="evenodd" clip-rule="evenodd" d="M16.6424 28.2016C16.7923 28.239 16.9377 28.2928 17.0759 28.3619C20.2571 29.9525 24 27.6392 24 24.0826V5.66658C24 2.72107 21.6122 0.333252 18.6667 0.333252H5.33333C2.38781 0.333252 0 2.72107 0 5.66658V24.0826C0 27.6392 3.74293 29.9525 6.92411 28.3619C7.06231 28.2928 7.20767 28.239 7.35757 28.2016L11.3532 27.2026C11.7779 27.0965 12.2221 27.0965 12.6468 27.2026L16.6424 28.2016ZM2.66667 5.66658C2.66667 4.19383 3.86057 2.99992 5.33333 2.99992H18.6667C20.1394 2.99992 21.3333 4.19383 21.3333 5.66658V24.0826C21.3333 25.6569 19.6766 26.6808 18.2685 25.9768C17.9562 25.8207 17.6279 25.6992 17.2892 25.6145L13.2935 24.6156C12.4442 24.4033 11.5558 24.4033 10.7065 24.6156L6.71081 25.6145C6.37215 25.6992 6.04377 25.8207 5.73154 25.9768C4.32343 26.6808 2.66667 25.6569 2.66667 24.0826V5.66658Z" fill="#0F973D"/>
</svg>
