<svg width="32" height="33" viewBox="0 0 32 33" fill="none" xmlns="http://www.w3.org/2000/svg">
<path fill-rule="evenodd" clip-rule="evenodd" d="M5.05556 7.85714C5.05556 3.51776 8.82798 0 13.4815 0C18.135 0 21.9074 3.51776 21.9074 7.85714C21.9074 12.1965 18.135 15.7143 13.4815 15.7143C8.82798 15.7143 5.05556 12.1965 5.05556 7.85714ZM13.4815 3.14286C10.6894 3.14286 8.42594 5.25351 8.42594 7.85714C8.42594 10.4608 10.6894 12.5714 13.4815 12.5714C16.2736 12.5714 18.5371 10.4608 18.5371 7.85714C18.5371 5.25351 16.2736 3.14286 13.4815 3.14286Z" fill="#F5B546"/>
<path fill-rule="evenodd" clip-rule="evenodd" d="M4.30638 31.2987C7.12803 32.4503 10.8855 33 13.4815 33C16.0775 33 19.8349 32.4503 22.6566 31.2987C24.0418 30.7334 25.4506 29.9243 26.2691 28.7531C26.6996 28.1371 26.9717 27.4115 26.9628 26.6015C26.9539 25.7988 26.6707 25.0298 26.1947 24.3144C23.887 20.846 19.166 17.2857 13.4815 17.2857C7.79701 17.2857 3.076 20.846 0.768302 24.3144C0.292277 25.0298 0.00905075 25.7988 0.000212803 26.6015C-0.00870681 27.4115 0.263423 28.1371 0.693881 28.7531C1.51237 29.9243 2.92115 30.7334 4.30638 31.2987ZM3.37041 26.6337C3.37167 26.519 3.41034 26.3048 3.63224 25.9713C5.52327 23.1291 9.29492 20.4286 13.4815 20.4286C17.6681 20.4286 21.4397 23.1291 23.3308 25.9713C23.5526 26.3048 23.5913 26.519 23.5926 26.6337C23.5938 26.7411 23.5642 26.8672 23.4454 27.0372C23.1654 27.4379 22.4853 27.938 21.3053 28.4196C18.9964 29.3619 15.7173 29.8571 13.4815 29.8571C11.2456 29.8571 7.96662 29.3619 5.65772 28.4196C4.47766 27.938 3.79763 27.4379 3.5176 27.0372C3.39879 26.8672 3.36923 26.7411 3.37041 26.6337Z" fill="#F5B546"/>
<path d="M31.5064 3.46829C32.1645 2.85461 32.1645 1.85964 31.5064 1.24595C30.8483 0.632271 29.7813 0.632269 29.1232 1.24595L25.8561 4.29253L25.381 3.84957C24.7229 3.23589 23.6559 3.23589 22.9978 3.84957C22.3397 4.46325 22.3397 5.45822 22.9978 6.0719L24.6645 7.62603C25.3226 8.23971 26.3896 8.23972 27.0477 7.62604L31.5064 3.46829Z" fill="#F5B546"/>
</svg>
