<svg width="21" height="21" viewBox="0 0 21 21" fill="none" xmlns="http://www.w3.org/2000/svg">
<path d="M18.0288 12.8567L16.7202 11.5481C16.6871 11.515 16.6987 11.4595 16.741 11.441C17.2032 11.2415 17.6353 10.9843 18.0288 10.68C18.1698 10.5707 18.3054 10.4559 18.4355 10.335C18.8153 9.98222 19.1488 9.58093 19.426 9.14035C19.4268 9.13881 19.4276 9.13804 19.4284 9.1365C19.5963 8.86923 19.7442 8.58733 19.8689 8.29387C20.1701 7.58525 20.338 6.80655 20.3411 5.98856C20.3411 5.98856 20.3411 5.98779 20.3411 5.98702C20.3411 5.97932 20.3411 5.97162 20.3411 5.96391C20.3411 5.1467 20.177 4.36876 19.8797 3.65938C19.7804 3.42137 19.6656 3.19108 19.537 2.97002C19.537 2.96848 19.5354 2.96771 19.5354 2.96694C18.957 1.97334 18.0997 1.16305 17.0714 0.641604C17.0676 0.639293 17.063 0.636983 17.0591 0.635442C16.2635 0.234151 14.9186 0.00616186 13.9682 0C13.9551 0 14.3903 0 14.3772 0C14.3641 0 14.3518 0 14.3387 0H1.77693C0.795651 0 0 0.795651 0 1.77693V14.4473C0 14.8578 0.0415926 15.2591 0.120927 15.6465C0.120927 15.6473 0.120927 15.6481 0.120927 15.6496C0.268811 16.3721 0.547636 17.0476 0.931212 17.6491C0.931212 17.6507 0.932752 17.6514 0.933522 17.653C1.5759 18.6597 2.5125 19.4607 3.62164 19.9344C3.62549 19.9359 3.62934 19.9375 3.63319 19.939C3.64166 19.9429 3.6509 19.9467 3.65938 19.9506C4.23012 20.1901 4.84554 20.3426 5.49022 20.3935C5.64658 20.4058 5.8037 20.4119 5.96314 20.4119C6.78575 20.4119 7.56908 20.2456 8.28154 19.9444C8.78451 19.7318 9.25281 19.4522 9.6749 19.1164C9.67567 19.1164 9.67644 19.1156 9.67721 19.1149C9.68491 19.1087 9.69338 19.1025 9.70108 19.0956C9.70339 19.0941 9.7057 19.0918 9.70802 19.0902C10.2541 18.6489 10.7209 18.1136 11.0829 17.5082C11.5959 16.6509 11.9001 15.655 11.9247 14.5898V14.5874C11.9255 14.5412 11.9263 14.495 11.9263 14.4488C11.9263 14.4026 11.9263 14.3564 11.9247 14.3102V12.1805C11.9247 12.0888 12.0357 12.0426 12.1004 12.1073L17.5012 17.5082L18.7652 18.7721C19.3483 19.3552 20.3442 18.9423 20.3442 18.1182V15.836C20.3442 15.4139 20.1763 15.0088 19.8774 14.7099L18.0258 12.8583L18.0288 12.8567ZM14.3749 8.29387H8.68592C8.46332 8.29387 8.28231 8.4741 8.28231 8.69747V14.4973V14.4981C8.20914 16.1248 6.5724 17.1785 5.06967 16.5492C4.25785 16.2096 3.70867 15.4262 3.65938 14.5397V4.01522C3.65938 3.82113 3.81727 3.66323 4.01137 3.66323L8.87462 3.66015C8.87462 3.66015 8.87462 3.66169 8.87385 3.66246C9.89441 3.66246 10.9481 3.66246 11.9263 3.66246C12.8398 3.66246 13.6878 3.66246 14.381 3.664C15.6357 3.66554 16.6709 4.70997 16.6755 5.96083C16.6802 7.24327 15.6627 8.27615 14.3749 8.29464V8.29387Z" fill="#E8562E"/>
</svg>
